<?xml version="1.0" standalone="no"?>
<!DOCTYPE svg PUBLIC "-//W3C//DTD SVG 20010904//EN"
 "http://www.w3.org/TR/2001/REC-SVG-20010904/DTD/svg10.dtd">
<svg version="1.0" xmlns="http://www.w3.org/2000/svg"
 width="512.000000pt" height="512.000000pt" viewBox="0 0 512.000000 512.000000"
 preserveAspectRatio="xMidYMid meet">
<metadata>
Created by potrace 1.16, written by Peter Selinger 2001-2019
</metadata>
<g transform="translate(0.000000,512.000000) scale(0.100000,-0.100000)"
fill="#000000" stroke="none">
<path d="M2715 4576 c-22 -7 -53 -21 -68 -31 -19 -12 -38 -16 -63 -12 -32 5
-37 3 -52 -23 -12 -21 -22 -28 -34 -24 -14 4 -19 -3 -24 -35 -6 -35 -10 -41
-31 -41 -22 0 -24 -3 -18 -27 10 -42 32 -71 75 -101 l39 -27 1 -77 c0 -76 -9
-99 -42 -110 -28 -10 39 -118 73 -118 10 0 19 -6 19 -13 0 -7 9 -30 21 -51 11
-22 23 -63 26 -93 5 -45 11 -58 39 -83 l34 -29 -33 -24 c-17 -13 -60 -39 -95
-57 -81 -43 -108 -70 -149 -155 -32 -66 -34 -75 -29 -145 7 -107 0 -127 -59
-185 -29 -27 -57 -66 -64 -85 -12 -36 -48 -80 -65 -80 -5 0 -22 -12 -38 -27
-15 -14 -30 -24 -33 -21 -3 3 -43 99 -89 214 -46 114 -94 218 -106 231 -27 29
-26 29 -312 -2 -128 -14 -251 -25 -274 -25 -44 0 -74 -22 -74 -55 0 -10 42
-117 94 -239 51 -121 106 -252 121 -289 29 -71 46 -87 89 -87 13 0 26 -5 28
-11 2 -6 50 -17 107 -25 57 -8 110 -18 118 -22 8 -5 -80 -8 -194 -8 -195 1
-211 0 -248 -21 -68 -37 -115 -98 -129 -172 -7 -39 15 -199 50 -355 48 -213
205 -822 232 -901 34 -99 38 -105 63 -105 10 0 19 -4 19 -9 0 -10 -163 -167
-210 -202 -37 -28 -82 -46 -197 -79 -75 -21 -85 -31 -98 -88 -6 -28 -3 -33 17
-41 20 -9 19 -10 -17 -12 -22 -1 17 -5 88 -9 76 -4 132 -11 139 -18 9 -9 8
-12 -8 -13 -10 -1 -3 -4 17 -8 20 -4 167 -4 325 0 292 8 502 20 452 27 -29 3
-32 9 -22 36 6 14 96 16 913 18 498 1 865 4 814 7 -79 5 -91 8 -83 21 5 8 10
31 10 51 0 38 -27 72 -65 82 -11 3 -1 4 23 1 41 -6 42 -5 42 23 0 48 -20 63
-120 89 -136 36 -423 92 -505 99 -38 3 -85 8 -102 11 l-33 5 0 108 c0 133 -7
172 -32 178 -13 4 -18 15 -18 44 0 44 8 48 35 19 10 -11 28 -20 39 -20 21 0
65 24 77 43 4 6 26 7 50 3 111 -18 125 -18 163 -2 20 8 35 20 32 25 -3 5 -38
15 -76 21 -39 6 -70 16 -70 20 0 5 -22 6 -49 3 -67 -8 -167 5 -152 20 6 6 11
34 11 63 l0 51 66 6 c71 7 113 27 121 58 4 13 14 19 32 19 14 0 93 7 174 15
166 16 224 36 294 98 44 40 86 111 102 172 5 22 15 96 21 163 5 68 17 146 26
173 16 49 16 50 -10 102 -26 48 -27 57 -21 137 18 228 73 557 141 841 57 240
94 456 101 596 l6 112 -35 35 c-22 22 -49 37 -74 42 -103 19 -533 -57 -635
-113 -58 -31 -109 -93 -136 -163 -9 -25 -18 -46 -19 -48 -1 -2 -20 8 -42 22
-23 14 -48 23 -59 20 -15 -4 -23 2 -32 23 -18 46 -16 77 8 116 25 41 51 177
51 268 0 76 -61 202 -100 207 -14 2 -39 17 -56 33 -55 53 -155 71 -239 45z
m185 -41 c16 -8 31 -19 35 -24 3 -5 -9 -3 -26 6 -22 11 -45 14 -77 9 -68 -9
-71 -21 -10 -42 42 -15 48 -19 28 -21 -64 -8 -90 -15 -90 -23 0 -6 9 -10 21
-10 12 0 18 -4 13 -11 -10 -16 -162 -6 -198 13 l-30 15 25 13 c13 7 40 27 60
44 20 16 52 36 70 43 41 16 138 9 179 -12z m-292 -32 c-10 -2 -26 -2 -35 0
-10 3 -2 5 17 5 19 0 27 -2 18 -5z m426 -31 c2 -4 -11 -6 -30 -4 -19 2 -34 6
-34 8 0 8 59 4 64 -4z m-412 -74 c26 -11 55 -29 65 -41 10 -13 12 -17 3 -11
-41 30 -129 21 -116 -12 4 -11 0 -11 -20 2 -24 16 -54 62 -54 83 0 14 66 2
122 -21z m386 -10 c8 -10 1 -13 -31 -13 -23 -1 -62 -11 -86 -23 -55 -27 -61
-28 -28 -2 61 48 123 64 145 38z m-493 -56 c-10 -10 -51 9 -63 29 -13 21 -13
21 27 -2 22 -12 39 -25 36 -27z m315 -67 c0 -50 3 -58 32 -84 l32 -28 -48 -22
c-28 -12 -69 -21 -98 -21 -29 0 -65 -8 -88 -20 -32 -16 -44 -18 -70 -9 l-31
11 3 82 3 81 40 5 c22 3 56 14 75 24 39 21 81 33 123 35 26 1 27 0 27 -54z
m63 8 c-7 -2 -19 -2 -25 0 -7 3 -2 5 12 5 14 0 19 -2 13 -5z m157 -122 c22
-43 2 -128 -36 -149 -14 -8 -14 -16 5 -79 13 -44 29 -76 42 -85 20 -13 19 -15
-40 -61 l-60 -48 15 37 c21 50 12 52 -21 4 -15 -22 -32 -37 -36 -34 -5 3 2 19
16 36 40 48 65 104 64 145 0 36 -16 89 -19 68 -4 -19 -18 51 -19 95 -1 27 5
55 15 68 19 27 60 29 74 3z m924 -37 c35 -35 34 -89 -8 -345 -25 -151 -65
-311 -125 -499 -61 -189 -131 -528 -146 -709 l-7 -83 -28 5 c-15 3 -50 9 -78
13 -50 6 -52 8 -58 43 -9 47 11 261 35 378 30 143 80 287 142 413 32 63 57
115 56 116 -1 2 -31 -4 -66 -12 -35 -8 -71 -13 -80 -12 -9 2 28 14 81 27 54
12 101 27 104 33 4 7 -4 8 -25 3 -24 -5 -31 -3 -31 9 0 29 44 66 90 75 43 8
43 9 10 10 -19 0 -65 -6 -102 -13 l-68 -13 6 41 c27 201 92 400 155 479 37 45
22 50 -17 5 -30 -36 -64 -107 -113 -234 -43 -110 -77 -156 -144 -189 l-55 -26
-48 36 c-26 20 -92 59 -146 86 -57 29 -98 55 -98 64 0 29 52 131 83 163 42 44
68 57 168 83 226 59 481 86 513 53z m-1064 -105 c-13 -60 -69 -149 -94 -149
-7 0 -25 13 -40 29 -16 16 -39 32 -52 35 -13 4 -24 11 -24 16 0 5 -15 1 -34
-9 -19 -11 -37 -17 -40 -14 -10 10 -7 113 4 113 5 0 14 -9 20 -20 17 -32 68
-54 96 -41 19 8 24 19 24 45 0 39 30 66 97 90 37 13 38 12 47 -11 5 -16 4 -47
-4 -84z m1131 54 c12 -55 -38 -451 -61 -476 -4 -5 -4 13 1 40 24 126 50 364
47 420 -4 69 -1 74 13 16z m-1351 -11 c0 -11 10 -27 21 -38 l22 -19 -7 39 c-7
36 -6 38 8 27 20 -16 21 -67 2 -74 -32 -12 -85 36 -73 67 9 22 27 20 27 -2z
m-114 -31 c10 -17 21 -28 26 -25 4 3 8 -2 8 -10 0 -29 -48 -19 -65 14 -8 16
-15 34 -15 40 0 21 29 9 46 -19z m141 -137 c-3 -3 -12 -4 -19 -1 -8 3 -5 6 6
6 11 1 17 -2 13 -5z m45 -48 c6 -14 8 -32 5 -40 -10 -26 -35 -18 -42 14 -5 23
-12 30 -31 30 -13 0 -24 5 -24 10 0 6 18 10 40 10 33 0 42 -4 52 -24z m402
-29 c12 -34 8 -39 -134 -146 l-118 -89 -22 30 c-17 23 -28 29 -46 25 -13 -2
-24 -3 -24 -2 0 2 24 14 53 29 28 14 99 62 157 105 58 44 110 78 115 77 6 -1
14 -14 19 -29z m105 -84 c164 -91 199 -127 233 -237 18 -60 20 -85 15 -200 -8
-188 -71 -527 -113 -608 -11 -21 -27 -31 -67 -42 -48 -13 -217 -30 -217 -22 0
2 33 9 73 16 126 20 175 37 191 68 19 39 72 268 91 393 18 125 20 306 4 381
-25 115 -75 174 -162 188 -30 5 -78 22 -106 38 -47 27 -49 29 -34 45 10 9 19
17 22 17 2 0 34 -16 70 -37z m-439 -27 c0 -18 -17 -29 -30 -21 -8 5 -7 11 1
21 15 18 29 18 29 0z m387 -17 l54 -31 -61 -55 c-33 -31 -58 -58 -55 -61 3 -3
27 15 53 40 57 56 80 68 126 68 72 0 136 -122 136 -261 0 -89 -26 -289 -55
-426 -30 -145 -57 -193 -122 -221 -50 -21 -178 -63 -250 -82 -35 -9 -275 -32
-279 -27 -1 1 -15 48 -31 104 -26 90 -28 103 -14 108 9 2 50 12 91 20 72 15
322 89 341 100 5 3 19 1 31 -5 22 -11 22 -10 4 4 -18 14 -18 16 -3 16 29 0 90
-29 122 -58 l29 -27 -25 35 c-35 48 -84 72 -134 66 -32 -4 -36 -2 -21 6 24 13
106 4 146 -17 45 -23 48 -12 5 15 -21 13 -62 26 -93 29 l-57 6 27 18 c15 10
48 22 75 27 l48 8 -49 1 c-33 1 -59 -5 -82 -20 -72 -44 -28 38 82 154 78 82
113 127 98 127 -7 0 -99 -75 -158 -129 -38 -36 -38 -36 -20 -6 10 17 28 44 40
60 55 77 40 74 -22 -5 -26 -33 -51 -60 -55 -60 -5 0 -9 17 -9 39 0 67 19 144
55 214 l34 69 -34 -38 c-19 -22 -53 -75 -76 -119 l-41 -80 4 79 c3 71 2 76 -9
48 -7 -17 -17 -64 -23 -104 -23 -153 -29 -175 -64 -206 -18 -15 -77 -47 -132
-70 -54 -24 -111 -49 -126 -57 l-28 -14 20 39 c26 51 20 51 -15 -1 -16 -22
-55 -61 -88 -86 l-60 -45 7 39 c4 21 15 46 25 56 16 17 16 22 -13 105 -25 74
-29 103 -30 194 -1 89 -3 103 -13 85 -7 -12 -13 -44 -13 -72 -1 -64 -17 -41
-29 42 -6 38 -7 -7 -4 -134 l6 -192 -54 14 c-30 8 -62 15 -71 15 -29 0 -21
-15 15 -28 18 -6 42 -18 52 -26 18 -13 16 -14 -20 -6 -22 4 -57 11 -78 15 -28
4 -36 9 -29 18 5 7 12 24 16 39 3 15 22 39 42 54 19 15 47 50 61 77 22 44 24
57 18 116 -5 54 -3 78 14 125 28 81 60 118 142 165 l72 41 -6 -29 c-3 -16 -3
-45 0 -65 l6 -36 33 25 33 25 15 -23 c14 -21 13 -33 -15 -142 -30 -117 -52
-330 -33 -312 5 5 12 50 15 100 5 80 55 304 66 294 2 -2 -10 -57 -27 -121 -29
-112 -41 -200 -20 -151 4 11 24 87 44 169 19 81 41 155 47 162 18 22 32 16 27
-11 -3 -14 -2 -28 3 -31 5 -3 70 51 146 120 76 69 144 125 152 125 7 1 38 -13
68 -30z m-491 -86 l27 -38 -27 25 c-27 24 -28 25 -42 6 -11 -16 -14 -17 -14
-4 0 23 11 48 20 48 4 0 20 -17 36 -37z m58 5 c3 -13 6 -34 6 -47 0 -20 -2
-21 -15 -11 -16 13 -21 80 -6 80 5 0 11 -10 15 -22z m1152 -216 c-93 -382
-156 -733 -156 -868 0 -48 -2 -52 -21 -47 -21 6 -21 10 -15 97 14 193 69 455
170 810 26 88 47 167 47 175 1 12 2 12 6 -2 3 -10 -11 -84 -31 -165z m-2009
-65 c10 -13 49 -105 87 -205 39 -99 74 -179 78 -176 4 3 5 -2 2 -10 -3 -9 -1
-16 6 -16 6 0 8 -4 5 -10 -3 -5 -1 -10 5 -10 7 0 9 -7 6 -17 -4 -10 -4 -14 1
-10 4 4 20 -25 35 -64 15 -40 25 -75 22 -78 -3 -3 -53 -7 -112 -9 -125 -4
-111 -13 -214 133 -59 83 -66 90 -95 87 -53 -5 -100 75 -70 118 14 20 13 24
-11 52 -30 33 -59 84 -82 142 l-15 38 -85 -6 c-47 -4 -104 -9 -127 -12 -29 -4
-43 -2 -43 5 0 6 8 11 18 12 9 0 136 13 282 28 146 16 270 29 277 30 6 0 20
-9 30 -22z m1063 -321 c0 -6 -180 -49 -185 -44 -3 2 32 14 78 25 84 22 107 26
107 19z m-602 -63 c14 -11 28 -25 30 -33 3 -8 -6 -5 -23 8 -33 26 -75 31 -55
7 19 -23 6 -28 -29 -11 -36 19 -53 20 -28 2 15 -12 12 -14 -30 -19 -27 -4 -59
-10 -72 -13 -41 -12 -19 18 40 54 45 28 61 33 98 29 24 -3 55 -13 69 -24z
m457 -29 c-49 -18 -210 -47 -233 -42 -26 6 44 41 98 49 25 3 74 7 110 7 l65 1
-40 -15z m-531 -31 c7 -7 -105 -83 -123 -83 -9 0 -25 49 -19 56 24 23 126 43
142 27z m141 -13 c-3 -5 -17 -10 -31 -10 -35 0 -53 -11 -112 -71 -57 -58 -70
-55 -21 4 36 44 28 49 -15 10 l-31 -28 25 29 c14 16 48 39 75 52 50 24 122 33
110 14z m150 -29 l80 -17 3 -38 c2 -21 -2 -44 -9 -52 -18 -21 -78 -17 -137 11
-66 30 -91 31 -143 4 -23 -11 -43 -18 -47 -15 -10 10 29 44 74 65 24 12 44 26
44 33 0 9 -3 9 -12 0 -7 -7 -20 -12 -29 -12 -9 0 -40 -16 -69 -36 l-53 -36 22
31 c12 17 27 31 32 31 6 0 8 4 5 9 -3 4 19 16 49 26 30 9 55 21 55 26 0 5 12
4 28 -2 15 -6 63 -19 107 -28z m-55 -152 c80 -6 151 -13 159 -15 38 -12 -9
-11 -169 1 -243 19 -290 21 -290 13 0 -5 4 -8 9 -8 5 0 92 -7 193 -15 100 -8
203 -16 228 -18 28 -2 19 -4 -25 -4 -38 -1 -146 4 -240 10 -168 12 -170 12
-173 36 l-4 24 84 -7 c45 -3 148 -11 228 -17z m-352 -11 c3 -17 -15 -18 -275
-17 -153 1 -270 3 -261 6 20 5 481 31 513 29 11 0 21 -9 23 -18z m1000 -94
c17 -7 32 -20 32 -29 0 -13 -4 -14 -21 -5 -29 16 -169 17 -196 2 -13 -7 -25
-23 -29 -36 -4 -19 -14 -25 -50 -31 -55 -8 -64 -2 -64 40 0 25 6 39 24 50 50
33 231 39 304 9z m-1497 -29 c105 -18 208 -53 299 -101 70 -36 78 -46 61 -73
-10 -16 -44 -4 -196 71 -53 26 -70 31 -50 16 16 -13 43 -35 60 -50 l30 -28
-74 26 c-40 14 -75 23 -77 21 -3 -2 43 -26 101 -52 102 -47 146 -76 94 -62
-60 17 -222 47 -226 43 -3 -3 19 -17 48 -32 29 -14 70 -38 91 -52 33 -22 38
-30 38 -64 l0 -39 -57 6 c-53 6 -61 10 -98 53 -124 145 -150 155 -59 24 27
-38 37 -59 25 -53 -24 13 -141 139 -141 152 0 6 -4 7 -10 4 -16 -10 -12 -47
10 -88 24 -44 19 -46 -28 -11 -30 24 -33 24 -23 6 12 -22 106 -92 178 -133 35
-20 47 -35 67 -84 25 -62 46 -159 46 -204 -1 -20 -6 -13 -24 29 -64 153 -98
195 -260 323 -34 26 -73 62 -88 79 -23 26 -28 29 -28 14 0 -38 66 -108 212
-226 42 -34 82 -76 89 -92 10 -24 10 -70 0 -227 -7 -108 -14 -197 -16 -199 -1
-2 -37 45 -80 103 -42 58 -80 104 -82 101 -6 -6 60 -142 151 -310 l60 -109
-18 -51 c-10 -28 -23 -57 -29 -65 -13 -16 -97 -54 -104 -47 -3 2 -15 44 -28
93 -13 48 -50 192 -84 318 -72 273 -146 599 -162 710 -31 220 101 310 382 260z
m1517 -24 c8 -4 12 -19 10 -32 -3 -23 -5 -24 -98 -24 -86 0 -95 2 -98 19 -7
32 25 46 102 46 39 0 77 -4 84 -9z m284 -46 c125 -18 245 -39 267 -45 68 -18
87 -70 56 -155 -8 -22 -14 -66 -15 -97 0 -86 -19 -204 -40 -252 -34 -80 -116
-152 -202 -177 -18 -5 -116 -16 -218 -24 -102 -8 -265 -26 -362 -40 -204 -29
-237 -30 -281 -11 -37 15 -77 57 -61 63 5 2 50 33 100 70 101 75 188 119 251
129 42 6 44 5 88 -44 64 -72 102 -84 270 -90 176 -5 210 3 281 70 73 69 91
121 104 298 5 76 8 145 6 152 -2 7 -7 25 -10 40 -9 39 -57 51 -345 83 -74 9
-136 17 -138 18 -4 5 9 47 16 47 3 0 108 -16 233 -35z m-802 -26 c71 -21 118
-45 65 -33 -16 4 -56 15 -87 24 -32 10 -58 17 -58 15 0 -2 19 -14 43 -28 43
-26 165 -143 156 -151 -2 -2 -51 -22 -109 -44 -155 -58 -262 -104 -256 -109 3
-3 86 27 186 67 203 80 274 92 99 15 -63 -27 -142 -69 -176 -92 -57 -38 -63
-41 -63 -22 0 14 -5 19 -17 17 -10 -2 -24 -25 -36 -61 -10 -32 -20 -57 -22
-55 -2 2 1 30 6 63 10 61 8 152 -3 125 -3 -8 -12 -37 -20 -65 l-15 -50 -46 99
c-48 101 -70 125 -42 45 42 -118 54 -240 31 -314 l-12 -40 -6 80 c-5 69 -42
204 -54 193 -2 -2 4 -31 13 -63 11 -39 17 -102 17 -180 1 -119 1 -121 -51
-275 -54 -158 -121 -311 -144 -325 -23 -15 -3 65 61 243 34 96 60 175 58 177
-4 5 -70 -168 -135 -355 -34 -100 -42 -134 -38 -170 3 -31 -2 -20 -17 38 -12
45 -25 82 -29 82 -4 0 -9 -60 -11 -134 -1 -74 -6 -137 -10 -141 -11 -11 -43 4
-81 39 -45 41 -46 59 -17 251 28 189 23 196 -10 12 -48 -271 -49 -238 11 -302
l53 -56 -95 55 c-52 31 -100 59 -108 63 -15 9 0 60 107 358 64 180 104 318
176 617 69 285 95 336 192 384 50 24 62 26 132 21 42 -3 109 -2 147 3 83 9
128 5 215 -21z m708 -19 c254 -29 300 -38 314 -63 7 -14 9 -62 5 -146 -8 -171
-20 -224 -66 -274 -65 -73 -157 -96 -309 -79 -113 13 -166 42 -217 116 l-40
58 -3 169 -4 169 66 0 66 0 0 -135 c0 -74 -5 -154 -12 -178 -10 -38 -9 -49 8
-83 30 -62 84 -84 209 -84 85 0 108 4 145 23 92 46 140 174 107 287 -22 75
-60 112 -139 134 -117 33 -116 40 2 21 22 -4 23 -3 5 5 -11 5 -105 21 -210 36
-156 22 -211 25 -309 21 -72 -4 -116 -3 -110 3 8 8 47 11 259 18 33 1 138 -7
233 -18z m-38 -179 c0 -25 -57 -111 -74 -111 -25 0 -46 42 -46 93 l0 48 35 -7
c40 -7 46 7 18 40 -10 11 1 5 25 -13 23 -18 42 -40 42 -50z m0 54 c0 -8 -2
-15 -4 -15 -2 0 -6 7 -10 15 -3 8 -1 15 4 15 6 0 10 -7 10 -15z m291 -99 c22
-81 -6 -191 -63 -243 -35 -33 -72 -43 -161 -43 l-82 0 -43 54 c-23 30 -42 57
-42 60 0 2 65 6 144 8 128 3 148 5 173 24 64 47 73 126 24 207 l-31 52 35 -39
c19 -22 40 -58 46 -80z m-826 -106 c-3 -5 -12 -10 -19 -10 -8 0 -73 -29 -145
-65 -126 -62 -178 -81 -137 -50 36 27 181 99 236 116 65 21 73 22 65 9z m417
-64 c9 -18 30 -49 47 -69 37 -41 38 -46 8 -40 -37 7 -67 36 -81 78 -23 65 -1
90 26 31z m-220 -11 c0 -19 1 -40 2 -47 1 -6 -27 -17 -64 -25 -77 -15 -131
-42 -226 -110 -98 -71 -143 -92 -230 -104 -42 -6 -78 -9 -79 -7 -14 13 22 29
85 38 41 6 77 14 81 18 3 4 11 27 18 50 32 113 209 218 374 221 36 1 37 0 39
-34z m-1124 -21 c28 -3 52 -12 52 -18 -1 -6 -18 -78 -40 -161 -35 -137 -39
-146 -45 -110 -12 74 -45 240 -55 274 -9 31 -8 33 13 28 12 -3 46 -9 75 -13z
m1102 -459 l0 -45 -156 3 c-150 2 -154 2 -97 14 32 7 96 26 143 42 47 17 91
31 98 31 8 0 12 -16 12 -45z m-505 -67 c155 1 195 -8 195 -43 0 -34 20 -44 93
-46 l67 -2 0 -37 c0 -29 -4 -39 -20 -43 -19 -5 -20 -14 -20 -145 l0 -140 -67
-7 c-193 -18 -364 -48 -650 -112 l-22 -5 19 56 c11 30 20 78 20 105 0 31 7 63
19 83 16 27 112 265 135 331 5 16 12 18 49 11 23 -4 105 -7 182 -6z m435 -128
c0 -22 -4 -40 -10 -40 -5 0 -10 18 -10 40 0 22 5 40 10 40 6 0 10 -18 10 -40z
m-25 -159 c7 -93 0 -171 -16 -171 -5 0 -9 58 -9 130 0 72 4 130 9 130 5 0 12
-40 16 -89z m75 -41 c0 -80 -4 -130 -10 -130 -6 0 -10 50 -10 130 0 80 4 130
10 130 6 0 10 -50 10 -130z m-933 -42 c-3 -8 -6 -5 -6 6 -1 11 2 17 5 13 3 -3
4 -12 1 -19z m22 -68 c0 -9 -4 -8 -9 5 -5 11 -9 27 -9 35 0 9 4 8 9 -5 5 -11
9 -27 9 -35z m-179 -100 c46 -39 95 -73 107 -76 13 -4 23 -10 23 -15 0 -16
-14 -10 -85 36 -39 25 -94 55 -123 67 -36 15 -51 26 -47 36 3 7 5 20 5 28 0
21 19 9 120 -76z m910 -6 c-35 -25 -75 -50 -89 -55 -14 -4 -96 -18 -181 -29
-237 -32 -281 -40 -273 -54 4 -6 -1 -5 -10 3 -30 24 -21 49 22 61 171 46 498
113 580 119 7 1 -15 -20 -49 -45z m100 33 c0 -8 -24 -40 -54 -73 -52 -58 -53
-60 -42 -94 11 -35 12 -35 76 -38 95 -5 110 1 110 43 0 43 -1 43 206 15 82
-11 152 -20 157 -20 15 0 6 -16 -15 -25 -31 -14 -45 -58 -31 -95 l11 -30 -286
0 c-222 0 -283 3 -274 12 18 18 15 93 -4 109 -14 11 -13 14 10 26 14 8 26 18
26 23 0 15 -11 12 -32 -7 -17 -15 -18 -15 -18 3 0 11 32 50 72 90 77 75 88 82
88 61z m220 -29 c76 -21 262 -90 290 -108 10 -6 11 -12 5 -19 -15 -13 -213 56
-320 113 -49 26 -81 44 -70 41 11 -4 54 -16 95 -27z m190 12 c96 -15 299 -57
373 -77 45 -12 57 -20 57 -36 0 -17 -5 -19 -37 -14 -21 3 -85 9 -143 12 -99 6
-113 10 -237 63 -122 52 -167 79 -110 68 12 -3 56 -10 97 -16z m-1698 -13
c-12 -13 -22 -29 -22 -35 0 -14 -2 -14 -24 -6 -13 5 -8 12 20 35 44 35 55 37
26 6z m808 -8 c-80 -16 -152 -28 -160 -26 -21 3 228 55 270 55 19 0 -30 -13
-110 -29z m-639 -5 c60 -33 55 -49 -9 -24 -26 11 -55 21 -65 24 -21 7 -14 26
10 26 8 0 37 -12 64 -26z m7 -58 c15 -15 -8 -13 -47 5 -24 10 -50 19 -58 19
-8 0 -11 4 -8 10 5 9 98 -19 113 -34z m439 28 c-3 -3 -12 -4 -19 -1 -8 3 -5 6
6 6 11 1 17 -2 13 -5z m-672 -35 c-6 -9 -35 -1 -35 10 0 4 3 11 7 14 8 9 34
-13 28 -24z m178 -19 c15 -7 27 -17 27 -21 0 -4 -19 1 -42 11 -24 11 -51 20
-61 20 -10 0 -16 4 -12 9 6 10 41 2 88 -19z m-208 1 c3 -5 1 -12 -4 -15 -13
-8 -42 4 -35 15 7 12 31 12 39 0z m1124 -24 c-15 -12 -36 -30 -47 -39 -28 -22
-38 -64 -24 -100 l10 -28 -116 0 c-90 0 -113 3 -104 12 17 17 15 70 -4 97 -13
18 -23 22 -47 18 -26 -3 -28 -2 -13 8 9 7 87 20 174 30 86 9 162 18 167 20 26
9 28 2 4 -18z m-941 -13 c20 -8 33 -16 30 -19 -6 -6 -100 25 -113 38 -12 12
34 2 83 -19z m490 -48 c-6 -10 -8 -39 -5 -62 l5 -44 -39 0 c-28 0 -39 5 -44
19 -11 37 -29 42 -88 27 -66 -17 -92 -30 -134 -66 -54 -48 -92 -55 -283 -54
-113 0 -184 4 -200 12 -20 10 -7 11 70 5 126 -9 258 -6 316 7 28 6 63 25 88
46 27 23 65 42 113 56 l73 21 0 43 c0 47 4 50 80 56 29 3 37 -1 47 -22 8 -17
8 -31 1 -44z m-718 49 c13 -16 3 -20 -24 -9 -9 3 -13 10 -10 15 8 13 20 11 34
-6z m2083 5 c73 0 79 -6 47 -47 -24 -31 -26 -70 -4 -101 l16 -23 -71 3 c-67 3
-84 9 -61 23 20 12 11 75 -15 101 -32 32 -34 59 -2 50 12 -3 52 -6 90 -6z
m-1905 -41 c23 -7 42 -16 42 -22 0 -5 -8 -6 -17 -2 -10 3 -39 11 -65 17 -26 6
-45 15 -42 20 3 5 13 7 22 4 10 -3 36 -10 60 -17z m1759 -7 c-10 -10 -18 -36
-19 -58 l-1 -39 -4 38 c-3 27 1 45 13 58 9 10 19 19 22 19 3 0 -2 -8 -11 -18z
m-1807 -31 c0 -4 -6 -13 -12 -19 -10 -10 -10 -15 2 -22 10 -7 11 -10 3 -10 -7
0 -12 -6 -10 -12 1 -7 25 -16 52 -20 28 -3 -6 -4 -75 -2 -69 3 -143 9 -165 13
l-40 8 30 12 c17 6 53 22 80 35 46 22 135 33 135 17z m667 -38 c-3 -10 -5 -2
-5 17 0 19 2 27 5 18 2 -10 2 -26 0 -35z m-993 22 c-10 -8 -37 -14 -59 -14
l-40 1 45 13 c63 18 78 18 54 0z m2363 -17 c-3 -7 -5 -2 -5 12 0 14 2 19 5 13
2 -7 2 -19 0 -25z m-2327 -59 c34 -6 24 -7 -43 -4 -48 2 -95 9 -105 15 -18 11
58 6 148 -11z"/>
<path d="M2996 4144 c-23 -22 -20 -30 3 -10 11 10 25 15 32 10 8 -4 10 -3 5 4
-10 16 -22 15 -40 -4z"/>
<path d="M3001 4116 c-6 -7 -10 -29 -9 -48 3 -33 4 -34 24 -21 26 17 37 52 22
70 -13 17 -23 16 -37 -1z"/>
<path d="M3928 3900 c-4 -63 -15 -160 -24 -215 -9 -55 -16 -107 -16 -115 0 -8
-20 -89 -45 -179 -24 -90 -42 -165 -40 -167 5 -5 59 174 86 281 26 103 53 350
49 440 -3 64 -4 59 -10 -45z"/>
<path d="M2481 3404 c0 -11 3 -14 6 -6 3 7 2 16 -1 19 -3 4 -6 -2 -5 -13z"/>
<path d="M2819 2802 c26 -50 87 -70 169 -56 l47 7 -55 9 c-30 5 -79 20 -108
33 -65 30 -65 30 -53 7z"/>
<path d="M2770 2740 c30 -59 31 -60 73 -60 23 0 67 3 97 7 45 5 50 8 30 14
-14 4 -55 7 -92 8 l-67 1 -31 45 c-17 25 -33 45 -36 45 -2 0 9 -27 26 -60z"/>
<path d="M2066 2079 c-23 -87 -27 -109 -17 -109 10 0 46 149 37 157 -2 3 -11
-19 -20 -48z"/>
<path d="M1902 1510 c0 -14 2 -19 5 -12 2 6 2 18 0 25 -3 6 -5 1 -5 -13z"/>
</g>
</svg>