<svg xmlns="http://www.w3.org/2000/svg" data-name="Layer 1" viewBox="0 0 32 32">
    <path d="M22.76 18.06c-1.8.05-3.62.13-5.42-.09-1.93-.17-4.02-.18-5.73.87-.87.52-1.7 1.32-1.84 2.37-.13 1.06.49 2.08 1.34 2.67 1.45 1 3.31 1.29 5.04 1.01 1.25-.25 2.49-.66 3.57-1.35-.53-.12-1.03-.3-1.52-.54-.08-.04-.13-.13-.1-.22.02-.09.1-.15.2-.15.95.04 1.98.07 2.82-.46h.02c.34-.18.58-.46.77-.78.14-.24.26-.5.38-.75-1.07.14-2.16.16-3.22-.12-.09-.02-.15-.11-.14-.21s.09-.17.18-.17c.88-.05 1.76-.22 2.56-.58.61-.27 1.02-.84 1.1-1.5Zm-8.3-1.72c1.27-.11 2.54-.03 3.8.12 1.71.13 3.43.04 5.14-.05.33-.02.55.15.69.4.11.2.17.46.21.67.22 1.44-.14 2.93-.78 4.23-.81 1.68-2.31 2.94-3.96 3.74-1.89.9-4.03 1.35-6.12 1.02-1.56-.3-3.12-.94-4.18-2.17-.95-1.06-1.34-2.61-.9-3.98.29-.95.94-1.74 1.71-2.35 1.26-.98 2.82-1.54 4.4-1.65ZM9.13 7.2c.38-.5 1.02-.75 1.64-.71.63.03 1.23.33 1.54.89.15.24.16.64.03.87-.06.1-.14.18-.24.21-.1.03-.22.03-.36-.03-.16-.07-.23-.19-.28-.33-.04-.11-.07-.26-.27-.4-.25-.17-.63-.18-.9-.06-.25.1-.31.33-.38.48-.05.12-.11.21-.17.26-.17.13-.41.14-.59.02-.18-.11-.28-.33-.24-.54.03-.23.09-.45.22-.64Zm1.06-4.1c-1.89.61-3.44 2.2-3.98 4.11-.5 1.6-.25 3.41.61 4.85.28.49.72.88.96 1.4v.03c.05.19.01.36-.08.51-.07.12-.18.23-.27.33-.97.94-1.92 1.92-2.6 3.1-.87 1.44-1.36 3.17-1.04 4.84.27 1.65 1.34 3.04 2.61 4.06 2.1 1.65 4.73 2.51 7.36 2.81 3.74.31 7.54-.71 10.73-2.66 2.23-1.35 4.14-3.35 5.05-5.81-.15.07-.3.13-.46.16-.27.05-.52-.07-.67-.28-.15-.2-.21-.47-.12-.71 0 0 0-.02.01-.03.17-.3.46-.5.71-.72.88-.7 1.28-1.83 1.35-2.93-.64.53-1.29 1.07-2.11 1.25-.33.1-.64-.08-.81-.36-.16-.28-.17-.64.06-.89l.02-.02c.43-.35.99-.5 1.42-.87.66-.54 1.03-1.34 1.2-2.16-.47.34-.94.68-1.46.94-1.22.61-2.6.9-3.96.84-2.15-.08-4.17-.93-6.01-1.99-.46.62-.87 1.29-1.51 1.73-.28.19-.62.13-.87-.06-.24-.2-.38-.52-.25-.83v-.01c.18-.37.49-.65.75-.96 1.43-1.7 1.78-4.24.86-6.26-.76-1.8-2.44-3.15-4.33-3.57-1.05-.22-2.16-.16-3.19.17Zm.56-1.77c1.8-.35 3.72.03 5.29.97 1.52.89 2.71 2.34 3.31 4 .62 1.64.63 3.5.04 5.14 1.6.96 3.36 1.73 5.24 1.87 1.87.13 3.8-.56 5.07-1.95.34-.35.59-.78.98-1.08h.01c.23-.16.51-.13.74 0 .22.13.38.35.41.6.16.98-.11 1.98.02 2.96.09.71.17 1.41.13 2.13-.03.82-.28 1.61-.34 2.42-.22 3.56-2.42 6.74-5.27 8.77-3.31 2.36-7.36 3.65-11.42 3.66-3.34-.1-6.73-1.09-9.41-3.12-1.86-1.42-3.3-3.56-3.41-5.95-.2-2.67 1.09-5.22 2.85-7.15.16-.2.35-.37.53-.56.14-.14.27-.29.34-.47-.22-.45-.47-.88-.77-1.28-.48-.14-.99-.14-1.47-.26C2.1 11.7.64 10.71.1 9.21v-.02c-.03-.13-.08-.28-.08-.42 0-.19.05-.37.24-.49.03-.02.07-.03.11-.03.76 0 1.52.19 2.27.04.61-.12 1.25-.25 1.77-.62.1-.15.16-.32.2-.5.06-.21.1-.43.17-.63.82-2.66 3.24-4.75 5.99-5.21Z" fill="currentColor"/>
</svg>
