<?xml version="1.0" standalone="no"?>
<!DOCTYPE svg PUBLIC "-//W3C//DTD SVG 20010904//EN"
 "http://www.w3.org/TR/2001/REC-SVG-20010904/DTD/svg10.dtd">
<svg version="1.0" xmlns="http://www.w3.org/2000/svg"
 width="512.000000pt" height="512.000000pt" viewBox="0 0 512.000000 512.000000"
 preserveAspectRatio="xMidYMid meet">
<metadata>
Created by potrace 1.16, written by Peter Selinger 2001-2019
</metadata>
<g transform="translate(0.000000,512.000000) scale(0.100000,-0.100000)"
fill="#000000" stroke="none">
<path d="M3480 4143 c-461 -45 -633 -85 -693 -165 -43 -56 -60 -145 -54 -278
3 -63 13 -161 23 -218 17 -97 17 -107 2 -170 -11 -42 -69 -168 -153 -334 -74
-147 -142 -293 -150 -325 -19 -71 -19 -201 -1 -270 8 -28 26 -77 40 -109 38
-83 21 -88 -33 -10 -35 50 -66 139 -80 222 -8 53 -7 61 11 80 10 12 25 42 33
68 13 44 13 47 -8 71 -30 34 -109 52 -285 65 -242 19 -375 -2 -431 -65 -35
-41 -37 -52 -15 -83 22 -32 66 -51 133 -58 l59 -7 10 -41 c6 -22 21 -108 35
-191 l24 -150 -75 -13 c-122 -20 -190 -61 -229 -135 -29 -58 -14 -146 34 -189
10 -9 54 -33 96 -53 80 -36 82 -39 49 -78 -10 -11 -12 -21 -6 -27 9 -9 119
-13 259 -10 l70 2 -63 15 c-35 8 -62 17 -59 19 7 8 137 -8 137 -16 0 -5 23
-14 51 -21 41 -11 56 -21 74 -49 55 -85 118 -119 223 -120 40 0 43 2 64 45 12
24 25 42 30 39 12 -7 10 -202 -2 -209 -6 -3 -10 -51 -10 -109 l0 -103 -102
-17 c-159 -26 -279 -56 -285 -72 -3 -8 -13 -14 -22 -14 -28 0 -264 -70 -288
-86 -16 -10 -23 -24 -23 -44 0 -19 -5 -30 -14 -30 -23 0 -56 -50 -56 -85 0
-18 9 -44 21 -59 18 -22 28 -26 75 -26 67 0 94 22 94 78 0 40 -13 63 -43 79
-14 7 4 14 80 31 168 37 178 38 168 16 -5 -10 -10 -38 -13 -61 -6 -58 20 -83
88 -83 41 0 56 5 75 25 29 28 32 70 10 102 -15 21 -14 22 17 27 18 3 76 7 128
8 l95 3 3 -35 c2 -19 8 -41 14 -48 8 -9 7 -11 -4 -7 -23 9 -53 -32 -53 -75 0
-27 8 -47 24 -64 l23 -25 -33 -4 c-19 -2 18 -4 81 -4 63 -1 105 2 92 5 -21 6
-22 9 -8 27 9 11 16 37 16 58 0 31 -7 45 -30 67 -28 26 -30 33 -30 97 0 89 11
173 21 173 5 0 9 -54 9 -120 0 -100 3 -120 15 -120 10 0 17 14 21 41 l7 41
121 -7 c160 -9 155 -7 153 -59 -3 -83 37 -116 122 -101 46 8 65 39 55 92 -5
27 -14 38 -38 49 -38 16 -26 17 47 3 31 -7 54 -16 51 -20 -3 -5 0 -9 6 -9 7 0
5 -9 -4 -22 -22 -31 -20 -100 3 -129 15 -18 28 -23 67 -23 79 0 104 10 120 50
15 35 12 66 -9 93 -7 7 -10 26 -9 42 5 39 -15 72 -39 66 -10 -3 -17 -1 -14 3
11 18 -419 138 -572 160 l-83 12 0 109 c0 61 -4 110 -10 114 -6 4 -10 53 -10
114 l0 108 44 5 c48 6 102 40 110 70 3 13 -4 29 -18 43 l-23 23 41 7 c23 3 79
8 126 11 47 2 102 6 122 9 20 3 40 1 43 -5 3 -5 30 -10 58 -10 39 0 62 6 89
25 20 14 49 25 63 25 38 0 91 25 121 57 37 39 55 87 64 168 5 38 13 71 19 73
28 9 78 51 89 76 28 56 -15 146 -70 146 -44 1 -60 24 -65 93 -8 101 0 128 52
165 55 39 66 72 36 112 -11 16 -21 33 -21 38 0 4 33 84 74 177 130 300 183
480 207 700 18 171 4 242 -58 299 -15 14 -40 28 -55 31 -28 6 -28 7 -13 42 22
51 19 79 -12 113 -40 45 -118 58 -263 43z m146 -66 c-47 -61 -76 -234 -76
-453 0 -115 -1 -122 -21 -127 -33 -9 -492 5 -511 15 -14 6 -16 5 -12 -7 9 -21
24 -23 244 -30 107 -3 216 -8 243 -11 43 -6 47 -9 47 -34 0 -25 -30 -132 -65
-233 -15 -42 -20 -48 -39 -42 -30 9 -175 6 -364 -6 -90 -6 -166 -8 -169 -5 -7
6 44 187 55 198 5 5 108 16 230 25 245 18 252 17 252 -41 0 -17 -6 -56 -14
-86 -8 -30 -13 -56 -11 -58 9 -9 27 72 31 135 4 70 3 73 -21 79 -13 3 -120 1
-237 -5 -117 -6 -223 -8 -235 -5 -35 10 -48 90 -48 309 0 181 1 192 24 240 36
72 36 72 12 46 -55 -62 -73 -239 -47 -449 10 -74 16 -135 14 -137 -9 -9 -74
24 -90 46 -39 52 -62 324 -37 439 18 85 76 134 184 156 231 47 421 71 583 73
l103 1 -25 -33z m89 3 c16 -18 16 -22 1 -67 -12 -33 -20 -109 -27 -238 -5
-104 -14 -200 -19 -213 -9 -21 -63 -52 -90 -52 -13 0 -13 270 0 365 26 182 81
265 135 205z m87 -179 l33 -30 -1 -138 c-2 -171 -32 -325 -103 -533 -41 -121
-164 -425 -177 -439 -3 -3 -9 0 -15 6 -8 8 11 65 65 199 121 304 172 487 197
706 14 127 7 187 -27 228 -33 38 -14 39 28 1z m-67 -368 c-16 -93 -61 -258
-100 -363 -44 -119 -145 -373 -149 -378 -2 -1 -29 4 -62 11 -55 13 -59 16 -57
41 1 14 30 95 64 179 81 200 126 334 134 401 l7 55 51 11 c64 13 97 34 97 60
0 11 5 20 10 20 7 0 9 -14 5 -37z m-849 -158 l51 -16 -32 -117 c-18 -64 -58
-191 -89 -282 -87 -257 -101 -313 -101 -415 0 -172 37 -202 252 -206 l91 -3 4
-54 3 -55 -135 6 c-183 9 -300 39 -364 96 -33 29 -57 91 -68 176 -15 112 2
180 89 349 154 300 185 368 206 456 12 50 26 88 32 86 5 -3 33 -12 61 -21z
m542 -244 c11 -6 6 -25 -20 -89 -28 -69 -37 -82 -56 -82 -22 0 -22 1 -7 31 9
17 14 33 12 35 -2 3 -10 -9 -16 -25 -7 -16 -22 -32 -34 -35 -12 -3 -85 -6
-162 -6 -77 -1 -178 -5 -225 -10 -47 -4 -87 -6 -88 -5 -2 2 8 41 23 87 l27 84
56 3 c31 1 116 6 187 10 185 11 288 12 303 2z m-68 -199 c0 -21 -34 -105 -38
-94 -2 7 -8 9 -14 6 -5 -3 -92 -7 -191 -8 -164 -1 -188 -4 -238 -24 -32 -12
-69 -34 -83 -49 -32 -32 -32 -24 -1 76 l25 79 73 6 c185 16 467 20 467 8z m16
-140 c134 -29 234 -87 234 -136 0 -19 -1 -19 -24 3 -39 37 -119 60 -244 71
-149 14 -235 6 -344 -31 -63 -21 -105 -29 -157 -29 -38 0 -72 3 -74 8 -3 4 34
8 82 8 69 1 100 7 156 29 57 23 94 29 195 35 l125 8 -125 -2 c-104 -2 -138 -7
-200 -28 -89 -30 -214 -46 -225 -28 -17 27 63 84 150 107 72 18 334 10 451
-15z m-1087 -57 c41 -8 84 -21 97 -30 28 -18 33 -49 7 -41 -50 16 -142 27
-263 33 -133 6 -136 5 -225 -26 -49 -17 -117 -33 -150 -36 l-60 -4 55 10 c30
5 91 22 135 37 55 18 110 29 175 33 l95 5 -88 2 c-74 2 -102 -3 -179 -28 -87
-29 -188 -40 -188 -21 0 5 14 21 30 35 28 23 61 36 130 50 47 9 355 -4 429
-19z m505 -105 c37 -28 46 -30 126 -30 l86 0 12 -33 c10 -29 31 -154 32 -194
0 -16 -107 -17 -195 -3 -75 12 -101 37 -115 110 -10 53 -4 180 9 180 3 0 24
-14 45 -30z m512 -64 c-3 -30 -1 -100 4 -156 6 -56 8 -111 4 -122 -5 -17 -58
-48 -82 -48 -5 0 -17 64 -26 143 -10 78 -21 145 -24 149 -4 4 -23 8 -42 11
l-35 4 38 1 c20 1 37 6 37 12 0 5 12 21 27 35 20 18 39 25 67 25 l39 0 -7 -54z
m46 -42 c-2 -60 2 -125 12 -173 19 -94 19 -114 0 -46 -20 73 -34 207 -27 265
10 83 18 57 15 -46z m129 -26 c-1 -46 3 -105 9 -131 6 -29 7 -55 2 -64 -13
-22 -18 -10 -37 82 -21 100 -9 233 18 206 5 -5 9 -47 8 -93z m-1116 82 c-3 -5
-21 -9 -38 -9 l-32 1 30 8 c43 11 47 11 40 0z m-179 -20 c32 0 33 0 39 -57 9
-82 50 -241 78 -305 l24 -54 -71 8 c-39 4 -89 10 -111 13 l-41 6 -23 167 c-13
92 -27 172 -32 178 -16 19 40 55 75 49 16 -3 43 -5 62 -5z m899 -20 c13 -6 15
-9 5 -9 -8 0 -22 4 -30 9 -18 12 -2 12 25 0z m-828 -77 c-2 -16 -4 -5 -4 22 0
28 2 40 4 28 2 -13 2 -35 0 -50z m-264 40 c-13 -2 -35 -2 -50 0 -16 2 -5 4 22
4 28 0 40 -2 28 -4z m1084 -55 c-2 -13 -4 -3 -4 22 0 25 2 35 4 23 2 -13 2
-33 0 -45z m-1140 -5 c-3 -10 -5 -2 -5 17 0 19 2 27 5 18 2 -10 2 -26 0 -35z
m330 -45 c-3 -7 -5 -2 -5 12 0 14 2 19 5 13 2 -7 2 -19 0 -25z m-320 -15 c-3
-10 -5 -4 -5 12 0 17 2 24 5 18 2 -7 2 -21 0 -30z m1140 -25 c-2 -13 -4 -5 -4
17 -1 22 1 32 4 23 2 -10 2 -28 0 -40z m-810 0 c-3 -8 -6 -5 -6 6 -1 11 2 17
5 13 3 -3 4 -12 1 -19z m-320 -45 c-3 -10 -5 -2 -5 17 0 19 2 27 5 18 2 -10 2
-26 0 -35z m1140 -35 c-2 -13 -4 -5 -4 17 -1 22 1 32 4 23 2 -10 2 -28 0 -40z
m-1130 -35 c-3 -10 -5 -4 -5 12 0 17 2 24 5 18 2 -7 2 -21 0 -30z m1570 -15
c-2 -13 -4 -5 -4 17 -1 22 1 32 4 23 2 -10 2 -28 0 -40z m-430 -45 c-3 -10 -5
-2 -5 17 0 19 2 27 5 18 2 -10 2 -26 0 -35z m-1130 0 c-3 -10 -5 -4 -5 12 0
17 2 24 5 18 2 -7 2 -21 0 -30z m1436 -72 c-7 -9 -11 6 -16 59 l-6 55 13 -55
c7 -30 11 -57 9 -59z m158 52 c13 -16 12 -17 -3 -4 -17 13 -22 21 -14 21 2 0
10 -8 17 -17z m-483 -7 c2 -3 7 -27 10 -54 l4 -49 -99 -6 c-133 -8 -236 -42
-349 -114 -227 -145 -283 -163 -498 -163 -82 0 -147 -2 -144 -5 3 -3 90 -6
194 -7 223 -1 249 4 417 91 62 32 150 68 194 80 75 20 298 49 307 40 3 -2 6
-15 9 -29 2 -14 2 -19 0 -12 -4 10 -25 11 -91 6 -186 -13 -253 -36 -487 -161
l-70 -38 -164 -3 c-162 -4 -391 10 -463 29 -20 5 -44 16 -52 24 -8 8 -20 15
-26 15 -14 0 -73 30 -68 35 2 2 40 -2 83 -10 98 -18 389 -31 468 -21 72 9 92
28 101 92 11 71 39 127 77 157 57 43 220 88 384 107 80 9 252 6 263 -4z m230
-18 c65 -20 91 -77 56 -126 -12 -17 -25 -22 -62 -22 -26 0 -52 4 -58 8 -7 4
-15 42 -19 85 l-7 78 28 -6 c16 -4 44 -11 62 -17z m189 -25 c-3 -10 -5 -4 -5
12 0 17 2 24 5 18 2 -7 2 -21 0 -30z m-1287 12 c69 -8 154 -15 190 -15 l65 0
-30 -19 c-49 -30 -82 -72 -114 -144 -43 -96 -58 -101 -276 -101 -240 1 -361
27 -385 84 -29 70 35 155 142 189 79 25 230 27 408 6z m897 -32 c-3 -10 -5 -4
-5 12 0 17 2 24 5 18 2 -7 2 -21 0 -30z m389 -78 c-9 -46 -48 -91 -92 -105
-43 -15 -164 -4 -164 13 0 9 20 10 81 3 67 -8 85 -7 107 6 32 19 62 72 63 113
0 17 3 24 6 17 3 -7 2 -28 -1 -47z m-379 3 c-3 -7 -5 -2 -5 12 0 14 2 19 5 13
2 -7 2 -19 0 -25z m-1277 -312 c0 -3 -4 -8 -10 -11 -5 -3 -10 -1 -10 4 0 6 5
11 10 11 6 0 10 -2 10 -4z m964 -40 c-10 -8 -23 -11 -29 -6 -5 4 -19 10 -30
13 -11 2 2 5 29 6 45 1 48 0 30 -13z m-51 -13 c-13 -2 -33 -2 -45 0 -13 2 -3
4 22 4 25 0 35 -2 23 -4z m-294 -72 c-11 -37 -15 -41 -43 -40 -17 1 -23 3 -13
6 9 2 17 8 17 13 0 4 7 24 16 45 21 52 40 33 23 -24z m91 20 c0 -17 -22 -71
-30 -71 -4 0 -2 18 3 40 10 35 27 55 27 31z m87 -98 c-2 -16 -4 -3 -4 27 0 30
2 43 4 28 2 -16 2 -40 0 -55z m0 -100 c-2 -16 -4 -5 -4 22 0 28 2 40 4 28 2
-13 2 -35 0 -50z m13 -144 c0 -59 -4 -99 -10 -99 -6 0 -10 42 -10 106 0 67 4
103 10 99 6 -3 10 -50 10 -106z m-253 -145 c-3 -3 -12 -4 -19 -1 -8 3 -5 6 6
6 11 1 17 -2 13 -5z m229 -119 c7 -103 7 -122 -4 -111 -14 14 -37 210 -27 227
16 24 22 -1 31 -116z m-279 109 c-3 -3 -12 -4 -19 -1 -8 3 -5 6 6 6 11 1 17
-2 13 -5z m-40 -10 c-3 -3 -12 -4 -19 -1 -8 3 -5 6 6 6 11 1 17 -2 13 -5z
m-40 -10 c-3 -3 -12 -4 -19 -1 -8 3 -5 6 6 6 11 1 17 -2 13 -5z m233 -34 c0
-5 -1 -10 -3 -10 -2 0 -99 -20 -215 -45 -116 -25 -217 -45 -224 -45 -72 2 327
105 420 109 12 1 22 -3 22 -9z m661 -31 c178 -33 229 -50 229 -73 0 -9 -2 -16
-5 -16 -23 0 -491 102 -505 111 -34 20 126 7 281 -22z m-1269 -76 c-3 -16 -7
-22 -10 -15 -4 13 4 42 11 42 2 0 2 -12 -1 -27z m332 -29 c-16 -24 -16 -28 0
-62 l16 -37 -20 24 c-24 28 -25 49 -4 79 21 31 28 28 8 -4z m840 -2 c-4 -20 0
-33 15 -46 21 -19 28 -46 12 -46 -23 0 -50 73 -38 105 10 25 17 17 11 -13z
m249 -22 c-25 -15 -33 -27 -36 -57 l-4 -38 -1 37 c-2 29 4 41 24 57 15 12 32
21 38 21 6 0 -3 -9 -21 -20z m-1480 -22 c-4 -7 -10 -31 -14 -53 -6 -39 -7 -39
-8 -7 -1 31 13 72 25 72 3 0 2 -6 -3 -12z m738 -70 c-4 -35 -6 -38 -9 -15 -3
26 3 57 10 57 2 0 1 -19 -1 -42z"/>
<path d="M3240 4023 c-14 -2 -74 -11 -135 -19 -60 -8 -116 -20 -125 -25 -11
-8 -9 -9 10 -5 38 8 236 35 320 45 l75 8 -60 0 c-33 0 -71 -1 -85 -4z"/>
<path d="M3378 2743 c7 -3 16 -2 19 1 4 3 -2 6 -13 5 -11 0 -14 -3 -6 -6z"/>
<path d="M2223 2703 c9 -2 23 -2 30 0 6 3 -1 5 -18 5 -16 0 -22 -2 -12 -5z"/>
<path d="M2903 2103 c9 -2 23 -2 30 0 6 3 -1 5 -18 5 -16 0 -22 -2 -12 -5z"/>
<path d="M2828 2093 c7 -3 16 -2 19 1 4 3 -2 6 -13 5 -11 0 -14 -3 -6 -6z"/>
<path d="M1838 1783 c6 -2 18 -2 25 0 6 3 1 5 -13 5 -14 0 -19 -2 -12 -5z"/>
<path d="M1928 1773 c6 -2 18 -2 25 0 6 3 1 5 -13 5 -14 0 -19 -2 -12 -5z"/>
</g>
</svg>